<?xml version="1.0" encoding="UTF-8"?>
<svg width="22px" height="22px" viewBox="0 0 22 22" version="1.1" xmlns="http://www.w3.org/2000/svg" xmlns:xlink="http://www.w3.org/1999/xlink">
    <!-- Generator: sketchtool 51.3 (57544) - http://www.bohemiancoding.com/sketch -->
    <title>D64EF407-D9A4-4816-9B1B-D57A7BFA7EC4</title>
    <desc>Created with sketchtool.</desc>
    <defs></defs>
    <g id="Page-1" stroke="none" stroke-width="1" fill="none" fill-rule="evenodd">
        <g id="offer_management12" transform="translate(-231.000000, -736.000000)" fill="#787878">
            <g id="tab" transform="translate(45.000000, 190.000000)">
                <g id="table2" transform="translate(31.000000, 380.000000)">
                    <g id="primary" transform="translate(115.000000, 53.000000)">
                        <g id="icon_month" transform="translate(40.000000, 113.000000)">
                            <g id="icon_calendar-copy-5" transform="translate(7.040000, 6.160000)">
                                <path d="M6.6,5.05771626 L8.2,5.05771626 L8.2,3.4499654 L6.6,3.4499654 L6.6,5.05771626 Z M6.6,7.06740484 L8.2,7.06740484 L8.2,5.45965398 L6.6,5.45965398 L6.6,7.06740484 Z M6.6,9.07709343 L8.2,9.07709343 L8.2,7.46934256 L6.6,7.46934256 L6.6,9.07709343 Z M4.6,5.05771626 L6.2,5.05771626 L6.2,3.4499654 L4.6,3.4499654 L4.6,5.05771626 Z M4.6,7.06740484 L6.2,7.06740484 L6.2,5.45965398 L4.6,5.45965398 L4.6,7.06740484 Z M4.6,9.07709343 L6.2,9.07709343 L6.2,7.46934256 L4.6,7.46934256 L4.6,9.07709343 Z M2.6,5.05771626 L4.2,5.05771626 L4.2,3.4499654 L2.6,3.4499654 L2.6,5.05771626 Z M2.6,7.06740484 L4.2,7.06740484 L4.2,5.45965398 L2.6,5.45965398 L2.6,7.06740484 Z M2.6,9.07709343 L4.2,9.07709343 L4.2,7.46934256 L2.6,7.46934256 L2.6,9.07709343 Z M0.6,5.05771626 L2.2,5.05771626 L2.2,3.4499654 L0.6,3.4499654 L0.6,5.05771626 Z M0.6,7.06740484 L2.2,7.06740484 L2.2,5.45965398 L0.6,5.45965398 L0.6,7.06740484 Z M0.6,9.07709343 L2.2,9.07709343 L2.2,7.46934256 L0.6,7.46934256 L0.6,9.07709343 Z M0,2.84705882 L0,8.86667903 C0,9.31594491 0.3582,9.68 0.8,9.68 L8,9.68 C8.4418,9.68 8.8,9.31594491 8.8,8.86667903 L8.8,2.84705882 L0,2.84705882 Z" id="Fill-1"></path>
                                <path d="M6.4,2.64369748 C6.0687,2.64369748 5.8,2.37048151 5.8,2.03361345 C5.8,1.80798403 5.9209,1.61143529 6.1,1.50589076 L6.1,2.03361345 C6.1,2.20209832 6.2343,2.33865546 6.4,2.33865546 C6.5656,2.33865546 6.7,2.20209832 6.7,2.03361345 L6.7,1.50578908 C6.8792,1.61133361 7,1.80798403 7,2.03361345 C7,2.37048151 6.7314,2.64369748 6.4,2.64369748 M2.4,2.64369748 C2.0687,2.64369748 1.8,2.37048151 1.8,2.03361345 C1.8,1.80798403 1.9209,1.61143529 2.1,1.50589076 L2.1,2.03361345 C2.1,2.20209832 2.2343,2.33865546 2.4,2.33865546 C2.5656,2.33865546 2.7,2.20209832 2.7,2.03361345 L2.7,1.50578908 C2.8792,1.61133361 3,1.80798403 3,2.03361345 C3,2.37048151 2.7314,2.64369748 2.4,2.64369748 M8,1.22016807 L6.7,1.22016807 L6.7,0.305042017 C6.7,0.136557143 6.5656,0 6.4,0 C6.2343,0 6.1,0.136557143 6.1,0.305042017 L6.1,1.22016807 L2.7,1.22016807 L2.7,0.305042017 C2.7,0.136557143 2.5656,0 2.4,0 C2.2343,0 2.1,0.136557143 2.1,0.305042017 L2.1,1.22016807 L0.8,1.22016807 C0.3582,1.22016807 0,1.58855714 0,2.04306975 L0,2.74537815 L0,2.84705882 L8.8,2.84705882 L8.8,2.74537815 L8.8,2.04306975 C8.8,1.58855714 8.4418,1.22016807 8,1.22016807" id="Fill-3"></path>
                            </g>
                            <path d="M11,22 C17.0654419,22 22,17.0654687 22,11.0000599 C22,4.93465099 17.0654419,0.000119729445 11,0.000119729445 C8.59401857,0.000119729445 6.31801758,0.760931029 4.40147705,2.20306185 L2.73102852,0.418887475 C2.652342,0.339932819 2.53417794,0.316568699 2.43132148,0.359268652 C2.32859933,0.401834322 2.26159492,0.502138954 2.26159492,0.613319997 L1.80952148,6.90717442 C1.80952148,7.05904127 1.9326538,7.18217292 2.08452148,7.18217292 L8.25045743,6.70563028 C8.36163908,6.70563028 8.46194426,6.63862626 8.50451016,6.53590464 C8.54707609,6.43304877 8.52357753,6.31488535 8.44489101,6.23619923 L6.55434568,4.35578448 C7.87227782,3.47023023 9.40236817,3.00375329 11,3.00375329 C15.4092651,3.00375329 18.9963501,6.59081873 18.9963501,11.0000599 C18.9963501,15.409301 15.4092651,18.9963664 11,18.9963664 C6.59073487,18.9963664 3.00364991,15.409301 3.00364991,11.0000599 C3.00364991,10.1965486 3.1228882,9.40270526 3.35787353,8.64055123 C3.38365478,8.55703119 3.3682129,8.46639446 3.31638183,8.39616779 C3.26455077,8.32594112 3.18237304,8.28444964 3.09509277,8.28444964 L0.557385262,8.28444964 C0.429553217,8.28444964 0.31850588,8.3725351 0.28950196,8.49700952 C0.097485355,9.32173649 0,10.1639194 0,11.0000599 C0,17.0654687 4.93455812,22 11,22 Z M0.77800294,8.83444665 L2.73093263,8.83444665 C2.54683839,9.53913032 2.45364991,10.2658353 2.45364991,11.0000599 C2.45364991,15.7124976 6.28753661,19.5463634 11,19.5463634 C15.7124634,19.5463634 19.5463501,15.7124976 19.5463501,11.0000599 C19.5463501,6.28762212 15.7124634,2.45375628 11,2.45375628 C9.17718505,2.45375628 7.43654785,3.02188064 5.96594237,4.09676493 C5.90122068,4.14416458 5.86026611,4.21747959 5.85408934,4.29750847 C5.84791259,4.37767161 5.87705077,4.4563577 5.93385009,4.51315672 L7.58659025,6.1556333 L2.35952148,6.63217594 L2.81159492,1.27718357 L4.18327635,2.76272675 C4.28156737,2.86142006 4.43813475,2.87028233 4.54770506,2.78447958 C6.40596924,1.32274436 8.63712157,0.550116736 11,0.550116736 C16.7621094,0.550116736 21.45,5.23798185 21.45,11.0000599 C21.45,16.7621379 16.7621094,21.450003 11,21.450003 C5.23789063,21.450003 0.55,16.7621379 0.55,11.0000599 C0.55,10.2775174 0.626672365,9.55000673 0.77800294,8.83444665 Z" id="Shape" fill-rule="nonzero"></path>
                        </g>
                    </g>
                </g>
            </g>
        </g>
    </g>
</svg>