<?xml version="1.0" encoding="UTF-8"?>
<svg width="22px" height="22px" viewBox="0 0 22 22" version="1.1" xmlns="http://www.w3.org/2000/svg" xmlns:xlink="http://www.w3.org/1999/xlink">
    <!-- Generator: sketchtool 51.3 (57544) - http://www.bohemiancoding.com/sketch -->
    <title>53145E41-2D61-4156-B21E-EFCBF97FF472</title>
    <desc>Created with sketchtool.</desc>
    <defs></defs>
    <g id="Page-1" stroke="none" stroke-width="1" fill="none" fill-rule="evenodd">
        <g id="offer_management12" transform="translate(-231.000000, -838.000000)" fill="#787878">
            <g id="tab" transform="translate(45.000000, 190.000000)">
                <g id="table2" transform="translate(31.000000, 380.000000)">
                    <g id="primary" transform="translate(115.000000, 53.000000)">
                        <g id="icon_current_term" transform="translate(40.000000, 215.000000)">
                            <path d="M11,22 C17.0654419,22 22,17.0654687 22,11.0000599 C22,4.93465099 17.0654419,0.000119729445 11,0.000119729445 C8.59401857,0.000119729445 6.31801758,0.760931029 4.40147705,2.20306185 L2.73102852,0.418887475 C2.652342,0.339932819 2.53417794,0.316568699 2.43132148,0.359268652 C2.32859933,0.401834322 2.26159492,0.502138954 2.26159492,0.613319997 L1.80952148,6.90717442 C1.80952148,7.05904127 1.9326538,7.18217292 2.08452148,7.18217292 L8.25045743,6.70563028 C8.36163908,6.70563028 8.46194426,6.63862626 8.50451016,6.53590464 C8.54707609,6.43304877 8.52357753,6.31488535 8.44489101,6.23619923 L6.55434568,4.35578448 C7.87227782,3.47023023 9.40236817,3.00375329 11,3.00375329 C15.4092651,3.00375329 18.9963501,6.59081873 18.9963501,11.0000599 C18.9963501,15.409301 15.4092651,18.9963664 11,18.9963664 C6.59073487,18.9963664 3.00364991,15.409301 3.00364991,11.0000599 C3.00364991,10.1965486 3.1228882,9.40270526 3.35787353,8.64055123 C3.38365478,8.55703119 3.3682129,8.46639446 3.31638183,8.39616779 C3.26455077,8.32594112 3.18237304,8.28444964 3.09509277,8.28444964 L0.557385262,8.28444964 C0.429553217,8.28444964 0.31850588,8.3725351 0.28950196,8.49700952 C0.097485355,9.32173649 0,10.1639194 0,11.0000599 C0,17.0654687 4.93455812,22 11,22 Z M0.77800294,8.83444665 L2.73093263,8.83444665 C2.54683839,9.53913032 2.45364991,10.2658353 2.45364991,11.0000599 C2.45364991,15.7124976 6.28753661,19.5463634 11,19.5463634 C15.7124634,19.5463634 19.5463501,15.7124976 19.5463501,11.0000599 C19.5463501,6.28762212 15.7124634,2.45375628 11,2.45375628 C9.17718505,2.45375628 7.43654785,3.02188064 5.96594237,4.09676493 C5.90122068,4.14416458 5.86026611,4.21747959 5.85408934,4.29750847 C5.84791259,4.37767161 5.87705077,4.4563577 5.93385009,4.51315672 L7.58659025,6.1556333 L2.35952148,6.63217594 L2.81159492,1.27718357 L4.18327635,2.76272675 C4.28156737,2.86142006 4.43813475,2.87028233 4.54770506,2.78447958 C6.40596924,1.32274436 8.63712157,0.550116736 11,0.550116736 C16.7621094,0.550116736 21.45,5.23798185 21.45,11.0000599 C21.45,16.7621379 16.7621094,21.450003 11,21.450003 C5.23789063,21.450003 0.55,16.7621379 0.55,11.0000599 C0.55,10.2775174 0.626672365,9.55000673 0.77800294,8.83444665 Z" id="Shape" fill-rule="nonzero"></path>
                            <path d="M14.8,9.23745665 L14.8,15.1889017 C14.8,15.4737586 14.7337575,15.6975714 14.6012705,15.8603468 C14.5255637,15.9620814 14.3741523,16.0536412 14.1470318,16.1350289 L13.4088938,16.3486705 L9.00845587,17.5694798 C8.98952916,17.5694798 8.95167631,17.5745664 8.89489618,17.5847399 C8.83811605,17.5949133 8.79079999,17.6 8.75294657,17.6 C8.56367947,17.6 8.38387843,17.5389601 8.21353804,17.4168786 C7.96749082,17.2947971 7.81607942,17.060811 7.75929929,16.7149133 L7.50378999,15.616185 C7.44700986,15.5347973 7.41862022,15.4330642 7.41862022,15.3109827 L6.19785357,9.93942197 C6.12214673,9.63421813 6.15999958,9.34427883 6.31141326,9.06959538 C6.46282693,8.79491192 6.68048082,8.62705233 6.96438147,8.56601156 L7.41862022,8.4134104 L7.41862022,8.16924855 C7.41862022,7.86404472 7.51798396,7.59953869 7.71671441,7.37572254 C7.91544485,7.1519064 8.15675678,7.04 8.44065742,7.04 L12.8410954,7.04 L13.352114,7.61988439 L14.2889814,8.65757225 L14.8,9.23745665 Z M7.3902303,8.9932948 L7.04955123,9.11537572 C6.91706427,9.15606957 6.81296893,9.24254269 6.73726209,9.37479769 C6.66155525,9.50705268 6.64262883,9.64439235 6.68048224,9.78682081 L7.3902303,12.9304046 L7.3902303,8.9932948 Z M12.6707558,7.61988439 L12.6423659,7.61988439 L12.6423659,8.65757225 C12.6423659,8.84069456 12.6991452,8.99329419 12.8127054,9.11537572 C12.9262657,9.23745726 13.0682139,9.29849711 13.2385543,9.29849711 L14.1754217,9.29849711 L12.6707558,7.61988439 Z M11.2796496,16.3181503 L8.44065742,16.3181503 C8.32709717,16.3181503 8.24192825,16.307977 8.18514812,16.2876301 L8.24192797,16.5623121 C8.26085468,16.7047406 8.33656038,16.8268203 8.46904734,16.9285549 C8.5826076,17.0099426 8.71509258,17.0302892 8.86650626,16.9895954 L11.2796496,16.3181503 Z M14.2889814,15.1889017 L14.2889814,9.81734104 L13.2385543,9.81734104 C12.9357269,9.81734104 12.6849518,9.70543465 12.4862213,9.4816185 C12.2874909,9.25780235 12.1881272,8.98312302 12.1881272,8.65757225 L12.1881272,7.61988439 L8.44065742,7.61988439 C8.30817046,7.61988439 8.1898803,7.67075094 8.08578339,7.77248555 C7.98168649,7.87422016 7.92963882,8.00647317 7.92963882,8.16924855 L7.92963882,15.219422 L7.98641867,15.4330636 C8.08105221,15.6365328 8.23246362,15.7382659 8.44065742,15.7382659 L13.7495729,15.7382659 C13.9766934,15.7382659 14.1281048,15.6467061 14.2038116,15.4635838 L14.2889814,15.1889017 Z M10.2860024,13.6934104 L8.95167602,13.6934104 L8.95167602,13.2966474 L10.2860024,13.2966474 L10.2860024,13.6934104 Z M13.2669442,13.6934104 L10.9389706,13.6934104 L10.9389706,13.2966474 L13.2669442,13.2966474 L13.2669442,13.6934104 Z M13.2385543,12.6862428 L11.9326179,12.6862428 L11.9326179,12.32 L13.2385543,12.32 L13.2385543,12.6862428 Z M11.2796496,12.6862428 L8.95167602,12.6862428 L8.95167602,12.32 L11.2796496,12.32 L11.2796496,12.6862428 Z M11.7338884,14.7921387 L9.00845587,14.7921387 L9.00845587,14.3953757 L11.7338884,14.3953757 L11.7338884,14.7921387 Z M13.2953341,14.7921387 L12.3868566,14.7921387 L12.3868566,14.3953757 L13.2953341,14.3953757 L13.2953341,14.7921387 Z M10.3995621,9.9699422 C10.6077559,10.1327176 10.6834616,10.3463571 10.6266814,10.6108671 C10.588828,10.8550301 10.4752695,11.0178031 10.2860024,11.0991908 C10.1724421,11.1398846 10.1061996,11.1602312 10.0872729,11.1602312 L10.0872729,11.4349133 L9.86015353,11.4349133 L9.86015353,11.1907514 C9.84122682,11.1907514 9.80810558,11.1856648 9.76078881,11.1754913 C9.71347203,11.1653179 9.67088757,11.1602312 9.63303416,11.1602312 C9.5194739,11.1195374 9.42484177,11.0788441 9.34913493,11.0381503 L9.34913493,10.9771098 C9.34913493,10.9567629 9.35859815,10.9364163 9.37752486,10.9160694 C9.39645156,10.8550286 9.41537799,10.8041621 9.4343047,10.7634682 C9.4343047,10.7838151 9.44376791,10.7939884 9.46269462,10.7939884 C9.65196172,10.8957231 9.81283633,10.9465896 9.9453233,10.9465896 C9.96425001,10.9262427 9.99737125,10.9160694 10.044688,10.9160694 C10.0920048,10.9160694 10.125126,10.9058961 10.1440528,10.8855491 C10.2765397,10.8245084 10.3475138,10.7227753 10.3569772,10.5803468 C10.3664405,10.4379184 10.3143929,10.326012 10.2008326,10.2446243 C10.1629792,10.2039304 10.1109315,10.1632372 10.044688,10.1225434 C9.97844454,10.0818495 9.93586009,10.0615029 9.91693338,10.0615029 C9.7655197,10.0004621 9.64249794,9.92924896 9.54786439,9.84786127 C9.41537742,9.72577974 9.35386654,9.56809345 9.36332989,9.37479769 C9.37279325,9.18150192 9.44376734,9.03398895 9.57625431,8.93225434 C9.63303444,8.87121357 9.72766657,8.82034702 9.86015353,8.77965318 L9.91693338,8.77965318 L9.91693338,8.5049711 L10.1156628,8.5049711 L10.1156628,8.74913295 C10.1535163,8.76947987 10.2008323,8.77965318 10.2576124,8.77965318 C10.3143926,8.77965318 10.3522454,8.78982649 10.3711721,8.81017341 C10.4279523,8.81017341 10.4847315,8.84069334 10.5415117,8.9017341 C10.5604384,8.9017341 10.5699016,8.91190741 10.5699016,8.93225434 C10.5699016,8.95260126 10.5604384,8.98820784 10.5415117,9.03907514 C10.522585,9.08994245 10.5036585,9.12554903 10.4847318,9.14589595 C10.409025,9.10520211 10.3143929,9.06450887 10.2008326,9.02381503 C10.0115655,9.02381503 9.89800695,9.03398834 9.86015353,9.05433526 C9.72766657,9.09502911 9.66142408,9.17641557 9.66142408,9.29849711 C9.62357066,9.46127249 9.66142351,9.57317889 9.77498377,9.63421965 L10.3995621,9.9699422 Z" id="icon_plan"></path>
                        </g>
                    </g>
                </g>
            </g>
        </g>
    </g>
</svg>